<svg width="147" height="47" viewBox="0 0 147 47" fill="none" xmlns="http://www.w3.org/2000/svg">
<path d="M141.906 46.75H4.76606C2.25184 46.75 0.194748 44.6575 0.194748 42.1V4.9C0.194748 2.3425 2.25184 0.25 4.76606 0.25H141.906C144.42 0.25 146.477 2.3425 146.477 4.9V42.1C146.477 44.6575 144.42 46.75 141.906 46.75Z" fill="black"/>
<path d="M31.0523 23.2679C31.0523 19.6641 34.0237 17.9204 34.138 17.8041C32.4237 15.3629 29.9095 15.0141 28.9952 14.8979C26.8239 14.6654 24.6525 16.1766 23.6239 16.1766C22.4811 16.1766 20.7669 14.8979 18.9383 14.8979C16.5384 14.8979 14.367 16.2929 13.1099 18.5016C10.5957 22.9191 12.4242 29.4291 14.8242 33.0329C16.0813 34.7766 17.4527 36.7529 19.2812 36.6366C21.1097 36.5204 21.7954 35.4741 23.9668 35.4741C26.1382 35.4741 26.7096 36.6366 28.6524 36.6366C30.5952 36.6366 31.8523 34.8929 32.9951 33.1491C34.3665 31.1729 34.938 29.1966 34.938 29.0804C34.8237 28.9641 31.0523 27.5691 31.0523 23.2679Z" fill="white"/>
<path d="M27.5091 12.5729C28.4233 11.2941 29.109 9.6666 28.9948 7.92285C27.6234 8.0391 25.7948 8.85285 24.8806 10.1316C23.9663 11.1779 23.1663 12.9216 23.3949 14.5491C24.8806 14.6654 26.4805 13.7354 27.5091 12.5729Z" fill="white"/>
<path fill-rule="evenodd" clip-rule="evenodd" d="M54.5935 36.4038H57.1077L52.5364 21.4075H49.5651L44.7652 36.4038H47.1651L48.4223 31.9863H53.2221L54.5935 36.4038ZM51.5099 26.1739L52.7671 30.1264H48.7672L50.0243 26.1739C50.3671 25.0114 50.5957 23.9652 50.71 23.3839C51.0147 24.3139 51.2179 25.0889 51.3533 25.6056C51.4211 25.8639 51.4719 26.0577 51.5099 26.1739Z" fill="white"/>
<path fill-rule="evenodd" clip-rule="evenodd" d="M67.8521 35.3576C68.8806 34.1951 69.3377 32.8001 69.3377 30.9401C69.3377 29.1963 68.8806 27.9176 67.8521 26.9876C67.0521 25.9413 66.0235 25.4763 64.7664 25.4763C63.1665 25.4763 62.0236 26.1738 61.2236 27.4526L61.1094 25.7088H59.0523C59.1666 26.9876 59.1666 28.1501 59.1666 29.3126V40.9376H61.5665V35.2413C62.1379 36.2876 63.1665 36.7526 64.5378 36.7526C65.9092 36.7526 66.9378 36.2876 67.8521 35.3576ZM66.2511 28.3829C66.7082 28.9641 66.9368 29.8941 66.9368 30.9404C66.9368 32.1029 66.7082 33.0329 66.1368 33.7304C65.6796 34.4279 64.9939 34.7766 64.0797 34.7766C63.394 34.7766 62.7083 34.5441 62.2512 33.9629C61.794 33.3816 61.5655 32.8004 61.5655 31.9866V30.1266C61.5655 30.0104 61.5655 29.7779 61.6797 29.4291C61.794 28.8479 62.1369 28.2666 62.594 27.9179C63.0511 27.5691 63.6226 27.3366 64.194 27.3366C65.1082 27.3366 65.7939 27.6854 66.2511 28.3829Z" fill="white"/>
<path fill-rule="evenodd" clip-rule="evenodd" d="M80.0786 35.3576C81.1072 34.1951 81.5643 32.8001 81.5643 30.9401C81.5643 29.1963 81.1072 27.9176 80.0786 26.9876C79.2786 25.9413 78.2501 25.4763 76.993 25.4763C75.393 25.4763 74.2502 26.1738 73.4502 27.4526L73.3359 25.7088H71.2788C71.3931 26.9876 71.3931 28.1501 71.3931 29.3126V40.9376H73.793V35.2413C74.3645 36.2876 75.393 36.7526 76.7644 36.7526C78.1358 36.7526 79.1643 36.2876 80.0786 35.3576ZM78.4776 28.3829C78.9347 28.9641 79.1633 29.8941 79.1633 30.9404C79.1633 32.1029 78.9347 33.0329 78.3633 33.7304C77.9062 34.4279 77.2205 34.7766 76.3062 34.7766C75.6205 34.7766 74.9348 34.5441 74.4777 33.9629C74.0206 33.3816 73.792 32.8004 73.792 31.9866V30.1266C73.792 30.0104 73.792 29.7779 73.9063 29.4291C74.0206 28.8479 74.3634 28.2666 74.8206 27.9179C75.2777 27.5691 75.8491 27.3366 76.4205 27.3366C77.3348 27.3366 78.0205 27.6854 78.4776 28.3829Z" fill="white"/>
<path d="M95.2791 32.2187C95.2791 33.4974 94.8219 34.5437 94.022 35.3574C93.1077 36.2874 91.7363 36.6362 90.0221 36.6362C88.4221 36.6362 87.165 36.2874 86.2507 35.7062L86.8221 33.7299C87.8507 34.3112 88.9935 34.6599 90.2506 34.6599C91.1649 34.6599 91.8506 34.4274 92.3077 34.0787C92.7649 33.6137 92.9934 33.1487 92.9934 32.4512C92.9934 31.8699 92.7649 31.2887 92.422 30.94C91.9649 30.475 91.2792 30.1262 90.3649 29.7775C87.7364 28.8475 86.4793 27.3362 86.4793 25.4762C86.4793 24.1975 86.9364 23.2675 87.8507 22.4538C88.765 21.64 89.9078 21.2913 91.5077 21.2913C92.8791 21.2913 93.9077 21.5238 94.8219 21.9888L94.2505 23.965C93.4505 23.5 92.5363 23.2675 91.3935 23.2675C90.5935 23.2675 89.9078 23.5 89.4507 23.8487C89.1078 24.1975 88.8792 24.6625 88.8792 25.2437C88.8792 25.825 89.1078 26.29 89.5649 26.755C89.9078 27.1037 90.7078 27.4525 91.7363 27.9175C92.9934 28.3825 93.9077 29.08 94.5934 29.7775C94.9362 30.3587 95.2791 31.1725 95.2791 32.2187Z" fill="white"/>
<path d="M103.05 27.4525H100.421V32.6838C100.421 33.9625 100.879 34.66 101.793 34.66C102.25 34.66 102.593 34.66 102.821 34.5438L102.936 36.4038C102.478 36.6363 101.907 36.6363 101.107 36.6363C100.193 36.6363 99.3928 36.4038 98.9357 35.8225C98.3643 35.2413 98.1357 34.3113 98.1357 32.9163V27.4525H96.5358V25.5925H98.1357V23.6162L100.421 22.9187V25.5925H103.05V27.4525Z" fill="white"/>
<path fill-rule="evenodd" clip-rule="evenodd" d="M113.449 35.0091C114.363 33.9629 114.82 32.5679 114.82 30.9404C114.82 29.3129 114.363 28.0341 113.563 26.9879C112.649 25.9416 111.392 25.3604 109.792 25.3604C108.192 25.3604 106.821 25.9416 105.906 26.9879C104.878 28.0341 104.421 29.4291 104.421 31.0566C104.421 32.6841 104.878 33.9629 105.792 35.0091C106.706 36.0554 107.964 36.6366 109.563 36.6366C111.163 36.6366 112.421 36.0554 113.449 35.0091ZM111.623 28.4994C112.08 29.1969 112.309 30.0107 112.309 31.0569C112.309 31.9869 112.08 32.9169 111.623 33.6144C111.052 34.4282 110.366 34.8932 109.452 34.8932C108.537 34.8932 107.737 34.4282 107.28 33.6144C106.823 32.9169 106.595 32.1032 106.595 31.0569C106.595 30.1269 106.823 29.1969 107.28 28.4994C107.737 27.6857 108.537 27.2207 109.452 27.2207C110.366 27.2207 111.166 27.6857 111.623 28.4994Z" fill="white"/>
<path d="M122.476 27.6847C122.247 27.6847 122.018 27.5684 121.676 27.5684C120.876 27.5684 120.19 27.9172 119.733 28.4984C119.39 29.0797 119.161 29.7772 119.161 30.5909V36.2872H116.761V28.8472C116.761 27.5684 116.761 26.5222 116.647 25.4759H118.704L118.819 27.5684H118.933C119.161 26.8709 119.618 26.2897 120.076 25.8247C120.647 25.4759 121.218 25.2434 121.79 25.2434C122.018 25.2434 122.247 25.2434 122.361 25.2434V27.6847H122.476Z" fill="white"/>
<path fill-rule="evenodd" clip-rule="evenodd" d="M132.879 31.5216C132.993 31.2891 132.993 30.9404 132.993 30.4754C132.993 29.1966 132.765 28.0341 131.965 27.1041C131.279 25.9416 130.022 25.3604 128.536 25.3604C126.936 25.3604 125.679 25.9416 124.765 27.1041C123.965 28.1504 123.508 29.5454 123.508 31.1729C123.508 32.8004 123.965 34.1954 124.879 35.1254C125.794 36.1716 127.165 36.6366 128.765 36.6366C130.136 36.6366 131.279 36.4041 132.308 35.9391L131.965 34.3116C131.165 34.6604 130.136 34.7766 129.108 34.7766C128.194 34.7766 127.394 34.4279 126.822 33.9629C126.136 33.3816 125.794 32.5679 125.794 31.5216H132.879ZM130.82 29.7776C130.821 29.816 130.821 29.8548 130.821 29.8939V29.7776H130.82ZM130.82 29.7776C130.807 29.1312 130.688 28.5826 130.364 28.0339C129.907 27.3364 129.335 26.9876 128.535 26.9876C127.735 26.9876 127.164 27.3364 126.707 27.9176C126.364 28.3826 126.135 29.0801 126.021 29.7776H130.82Z" fill="white"/>
<path fill-rule="evenodd" clip-rule="evenodd" d="M50.9378 15.2466C51.7378 14.5491 52.0806 13.5028 52.0806 12.2241C52.0806 11.0616 51.6235 10.1316 51.0521 9.55032C50.3664 8.96907 49.4521 8.73657 48.195 8.73657C47.395 8.73657 46.7093 8.73657 46.1379 8.85282V16.0603C46.5951 16.1766 47.1665 16.1766 47.8522 16.1766C49.2236 16.1766 50.2521 15.8278 50.9378 15.2466ZM50.1384 10.2476C50.5955 10.7126 50.8241 11.4101 50.8241 12.2239C50.8241 13.1539 50.5955 13.9676 50.1384 14.4326C49.6813 14.8976 48.9956 15.1301 48.0813 15.1301H47.2813V9.6664C47.5099 9.55015 47.8527 9.55015 48.1956 9.55015C48.9956 9.55015 49.6813 9.78265 50.1384 10.2476Z" fill="white"/>
<path fill-rule="evenodd" clip-rule="evenodd" d="M57.7922 15.3622C58.2493 14.8972 58.4779 14.1997 58.4779 13.3859C58.4779 12.5722 58.2493 11.8747 57.7922 11.4097C57.335 10.8284 56.7636 10.5959 55.9636 10.5959C55.1637 10.5959 54.478 10.8284 54.0208 11.4097C53.5637 11.8747 53.3351 12.5722 53.3351 13.3859C53.3351 14.1997 53.5637 14.8972 54.0208 15.3622C54.478 15.9434 55.0494 16.1759 55.8494 16.1759C56.6493 16.1759 57.335 15.9434 57.7922 15.3622ZM56.9917 12.107C57.2202 12.4557 57.3345 12.9207 57.3345 13.3857C57.3345 13.8507 57.2202 14.3157 56.9917 14.5482C56.7631 15.0132 56.4203 15.2456 55.9631 15.2456C55.506 15.2456 55.1631 15.1294 54.9346 14.6644C54.706 14.3157 54.5917 13.8507 54.5917 13.3857C54.5917 12.9207 54.706 12.4557 54.9346 12.107C55.1631 11.7582 55.506 11.5257 55.9631 11.5257C56.4203 11.5257 56.7631 11.642 56.9917 12.107Z" fill="white"/>
<path d="M67.281 10.7122L65.681 16.0596H64.6525L63.9668 13.7346C63.7382 13.1534 63.6239 12.5721 63.5096 11.9909C63.3953 12.5721 63.2811 13.1534 63.0525 13.7346L62.3668 16.0596H61.3383L59.624 10.7122H60.7668L61.3383 13.2696C61.4525 13.8509 61.5668 14.4321 61.6811 15.0133C61.7954 14.5483 61.9097 13.9671 62.1382 13.2696L62.8239 10.7122H63.7382L64.4239 13.1534C64.6525 13.7346 64.7667 14.3159 64.881 14.8971C64.9953 14.3159 65.1096 13.7346 65.2239 13.1534L65.9096 10.7122H67.281Z" fill="white"/>
<path d="M73.2226 16.06H72.0798V13.0375C72.0798 12.1075 71.7369 11.6425 71.0512 11.6425C70.7084 11.6425 70.4798 11.7587 70.2513 11.9912C70.0227 12.2237 69.9084 12.5725 69.9084 12.9212V16.06H68.7656V12.2237C68.7656 11.7587 68.7656 11.2937 68.7656 10.7125H69.7941V11.5262C69.9084 11.2937 70.137 11.0612 70.3655 10.8287C70.7084 10.5962 71.0512 10.48 71.3941 10.48C71.8512 10.48 72.3084 10.5962 72.6512 10.945C73.1083 11.2937 73.2226 11.875 73.2226 12.6887V16.06Z" fill="white"/>
<path d="M76.4237 16.06H75.2808V8.27124H76.4237V16.06Z" fill="white"/>
<path fill-rule="evenodd" clip-rule="evenodd" d="M82.5905 15.3622C83.0477 14.8972 83.2762 14.1997 83.2762 13.3859C83.2762 12.5722 83.0477 11.8747 82.5905 11.4097C82.1334 10.8284 81.562 10.5959 80.762 10.5959C79.962 10.5959 79.2763 10.9447 78.8192 11.4097C78.3621 11.8747 78.1335 12.5722 78.1335 13.3859C78.1335 14.1997 78.3621 14.8972 78.8192 15.3622C79.2763 15.9434 79.8477 16.1759 80.6477 16.1759C81.4477 16.1759 82.1334 15.9434 82.5905 15.3622ZM81.79 12.107C82.0186 12.4557 82.1329 12.9207 82.1329 13.3857C82.1329 13.8507 82.0186 14.3157 81.79 14.5482C81.5615 15.0132 81.2186 15.2456 80.7615 15.2456C80.3044 15.2456 79.9615 15.1294 79.7329 14.6644C79.5044 14.3157 79.3901 13.8507 79.3901 13.3857C79.3901 12.9207 79.5044 12.4557 79.7329 12.107C79.9615 11.7582 80.3044 11.5257 80.7615 11.5257C81.2186 11.5257 81.5615 11.642 81.79 12.107Z" fill="white"/>
<path fill-rule="evenodd" clip-rule="evenodd" d="M87.8485 16.0597H88.8771V16.0597C88.8771 15.7109 88.8771 15.3622 88.9914 14.7809V12.8047C88.9914 11.2934 88.3057 10.5959 86.9343 10.5959C86.1343 10.5959 85.5629 10.7122 85.1057 11.0609L85.3343 11.8747C85.7914 11.6422 86.1343 11.5259 86.7057 11.5259C87.3914 11.5259 87.7342 11.8747 87.7342 12.5722V12.6884C86.7057 12.6884 86.02 12.8047 85.4486 13.1534C84.8772 13.5022 84.6486 13.9672 84.6486 14.6647C84.6486 15.0134 84.8772 15.3622 85.1057 15.7109C85.3343 16.0597 85.7914 16.1759 86.2486 16.1759C86.82 16.1759 87.3914 15.9434 87.7342 15.4784L87.8485 16.0597ZM87.735 13.3861V14.1999V14.4324C87.6207 14.6649 87.5064 14.8974 87.2778 15.0136C87.0493 15.1299 86.8207 15.2461 86.5921 15.2461C86.3636 15.2461 86.135 15.1299 86.0207 15.0136C85.9064 14.8974 85.7922 14.6649 85.7922 14.4324C85.7922 13.7349 86.4779 13.3861 87.735 13.3861Z" fill="white"/>
<path fill-rule="evenodd" clip-rule="evenodd" d="M94.4779 16.0597H95.5064V14.6647V8.38721H94.3636V11.4097C94.0208 10.9447 93.5636 10.7122 92.8779 10.7122C92.3065 10.7122 91.7351 10.9447 91.278 11.4097C90.8208 11.991 90.5923 12.6885 90.5923 13.5022C90.5923 14.316 90.7066 15.0135 91.1637 15.4785C91.6208 15.9435 92.0779 16.176 92.7636 16.176C93.5636 16.176 94.135 15.9435 94.4779 15.246V16.0597ZM94.3643 12.9206V13.8506C94.3643 14.1993 94.25 14.5481 94.0215 15.0131C93.7929 15.3618 93.4501 15.4781 93.1072 15.4781C92.6501 15.4781 92.3072 15.2456 92.0787 14.8968C91.8501 14.5481 91.7358 14.1993 91.7358 13.6181C91.7358 13.0368 91.8501 12.5718 92.0787 12.2231C92.3072 11.8743 92.6501 11.6418 93.1072 11.6418C93.4501 11.6418 93.6786 11.6418 93.9072 11.8743C94.1358 12.1068 94.25 12.3393 94.3643 12.5718V12.9206Z" fill="white"/>
<path fill-rule="evenodd" clip-rule="evenodd" d="M104.763 15.3622C105.22 14.8972 105.448 14.1997 105.448 13.3859C105.448 12.5722 105.22 11.8747 104.763 11.4097C104.305 10.8284 103.734 10.5959 102.934 10.5959C102.134 10.5959 101.448 10.8284 100.991 11.4097C100.534 11.8747 100.306 12.5722 100.306 13.3859C100.306 14.1997 100.534 14.8972 100.991 15.3622C101.448 15.9434 102.02 16.1759 102.82 16.1759C103.62 16.1759 104.305 15.9434 104.763 15.3622ZM103.849 12.107C104.078 12.4557 104.192 12.9207 104.192 13.3857C104.192 13.8507 104.078 14.3157 103.849 14.5482C103.62 15.0132 103.278 15.2457 102.82 15.2457C102.363 15.2457 102.02 15.1294 101.792 14.6644C101.563 14.3157 101.449 13.8507 101.449 13.3857C101.449 12.9207 101.563 12.4557 101.792 12.107C102.02 11.7583 102.363 11.5258 102.82 11.5258C103.278 11.5258 103.62 11.642 103.849 12.107Z" fill="white"/>
<path d="M111.733 16.06H110.591V13.0375C110.591 12.1075 110.248 11.6425 109.562 11.6425C109.219 11.6425 108.991 11.7587 108.762 11.9912C108.533 12.2237 108.419 12.5725 108.419 12.9212V16.06H107.276V12.2237C107.276 11.7587 107.276 11.2937 107.276 10.7125H108.305V11.5262C108.419 11.2937 108.648 11.0612 108.876 10.8287C109.219 10.5962 109.562 10.48 109.905 10.48C110.362 10.48 110.819 10.5962 111.162 10.945C111.619 11.2937 111.733 11.875 111.733 12.6887V16.06Z" fill="white"/>
<path d="M119.506 11.6428H118.249V14.2003C118.249 14.8978 118.478 15.1303 118.935 15.1303C119.164 15.1303 119.278 15.1303 119.506 15.1303V16.0603C119.278 16.1766 118.935 16.1766 118.592 16.1766C118.135 16.1766 117.792 16.0603 117.564 15.7116C117.335 15.4791 117.221 14.8978 117.221 14.3166V11.6428H116.421V10.7128H117.221V9.78283L118.364 9.43408V10.7128H119.621V11.6428H119.506Z" fill="white"/>
<path d="M125.678 16.06H124.535V13.0375C124.535 12.1075 124.192 11.6425 123.507 11.6425C122.935 11.6425 122.592 11.875 122.364 12.4562C122.364 12.5725 122.364 12.6887 122.364 12.9212V16.06H121.221V8.27124H122.364V11.5262C122.707 10.945 123.278 10.5962 123.964 10.5962C124.421 10.5962 124.878 10.7125 125.107 11.0612C125.449 11.41 125.678 12.1075 125.678 12.805V16.06Z" fill="white"/>
<path fill-rule="evenodd" clip-rule="evenodd" d="M131.962 13.7347V13.1534C131.962 12.4559 131.848 11.8747 131.619 11.5259C131.276 10.9447 130.705 10.7122 129.905 10.7122C129.105 10.7122 128.534 10.9447 128.077 11.5259C127.619 11.9909 127.391 12.6884 127.391 13.5022C127.391 14.3159 127.619 15.0134 128.077 15.4784C128.534 15.9434 129.219 16.1759 130.019 16.1759C130.705 16.1759 131.276 16.0597 131.734 15.8272L131.505 15.0134C131.162 15.1297 130.705 15.2459 130.134 15.2459C129.677 15.2459 129.334 15.1297 128.991 14.8972C128.762 14.6647 128.534 14.3159 128.534 13.7347H131.962ZM130.706 11.8747C130.82 12.1072 130.934 12.4559 130.934 12.8046H128.534C128.534 12.4559 128.649 12.1072 128.877 11.8747C129.106 11.526 129.449 11.4097 129.791 11.4097C130.249 11.4097 130.477 11.526 130.706 11.8747Z" fill="white"/>
</svg>
