<svg width="18" height="18" viewBox="0 0 18 18" fill="none" xmlns="http://www.w3.org/2000/svg">
<path d="M5.48985 11.1704L5.47492 11.2301V11.2917C5.47492 11.6973 5.81178 12 6.18325 12H15.3333V12.6667H5.83325C5.19273 12.6667 4.66659 12.1405 4.66659 11.5C4.66659 11.294 4.71951 11.1047 4.80904 10.9481L4.80909 10.9481L4.81284 10.9413L5.93784 8.89963L6.0614 8.67538L5.95168 8.44405L2.95168 2.11905L2.81616 1.83332H2.49992H1.33325V1.16666H3.24078L3.88907 2.546L3.88907 2.54601L3.88995 2.54785L4.68136 4.21399L4.68161 4.21452L6.54803 8.15566L6.54802 8.15566L6.54942 8.15856L6.65775 8.38356L6.79405 8.66666H7.10825H12.9583H13.2534L13.396 8.40829L15.696 4.24162L15.6964 4.24095L16.3737 3.00944L16.9543 3.32977L13.9786 8.73382L13.9782 8.73457C13.7811 9.09388 13.3976 9.33332 12.9583 9.33332H6.74992H6.45484L6.31221 9.59164L5.56221 10.95L5.53067 11.0071L5.51485 11.0704L5.48985 11.1704ZM4.67492 15.6667C4.67492 15.0229 5.19598 14.5 5.83325 14.5C6.47378 14.5 6.99992 15.0261 6.99992 15.6667C6.99992 16.3072 6.47378 16.8333 5.83325 16.8333C5.19598 16.8333 4.67492 16.3104 4.67492 15.6667ZM13.0083 15.6667C13.0083 15.0229 13.5293 14.5 14.1666 14.5C14.8071 14.5 15.3333 15.0261 15.3333 15.6667C15.3333 16.3072 14.8071 16.8333 14.1666 16.8333C13.5293 16.8333 13.0083 16.3104 13.0083 15.6667Z" stroke="#3A4B6D"/>
</svg>
