<svg width="144" height="47" viewBox="0 0 144 47" fill="none" xmlns="http://www.w3.org/2000/svg">
<path d="M138.836 46.1832H4.98486C2.53093 46.1832 0.523163 44.1418 0.523163 41.6467V5.35397C0.523163 2.85885 2.53093 0.817383 4.98486 0.817383H138.836C141.29 0.817383 143.297 2.85885 143.297 5.35397V41.6467C143.297 44.1418 141.29 46.1832 138.836 46.1832Z" fill="black"/>
<path fill-rule="evenodd" clip-rule="evenodd" d="M11.4543 23.0465V11.1379C11.4543 10.4575 12.0121 9.89038 12.5698 9.89038C13.1275 9.89038 13.3506 10.0038 13.6852 10.2306L35.2129 22.2526C35.659 22.4794 35.8821 22.8196 35.8821 23.1599C35.8821 23.5001 35.659 23.8404 35.2129 24.0672L13.6852 36.0892C13.4621 36.2026 13.1275 36.4294 12.5698 36.4294C12.0121 36.4294 11.4543 35.8623 11.4543 35.1818V23.0465Z" fill="url(#paint0_linear_1123_55649)"/>
<path fill-rule="evenodd" clip-rule="evenodd" d="M25.3981 23.1599L12.3477 9.89038C12.4592 9.89038 12.4592 9.89038 12.5707 9.89038C13.1285 9.89038 13.3515 10.0038 13.6862 10.2306L29.5252 19.077L25.3981 23.1599Z" fill="url(#paint1_linear_1123_55649)"/>
<path fill-rule="evenodd" clip-rule="evenodd" d="M29.4116 27.1297L25.396 23.0467L29.5231 18.8503L35.2118 22.026C35.6579 22.2528 35.881 22.5931 35.881 22.9333C35.881 23.2736 35.6579 23.6138 35.2118 23.8406L29.4116 27.1297Z" fill="url(#paint2_linear_1123_55649)"/>
<path fill-rule="evenodd" clip-rule="evenodd" d="M12.4579 36.203L25.3968 23.0469L29.4123 27.1298L13.6848 35.8627C13.3502 36.0896 13.1271 36.203 12.4579 36.203C12.5694 36.203 12.5694 36.203 12.4579 36.203Z" fill="url(#paint3_linear_1123_55649)"/>
<path fill-rule="evenodd" clip-rule="evenodd" d="M79.828 39.2646C79.2703 38.8109 78.8242 38.017 78.6011 37.5633L80.3857 36.7694C80.4973 36.9963 80.7204 37.3365 80.9435 37.6768C81.3896 38.1304 82.0589 38.5841 82.7281 38.5841C83.3974 38.5841 84.1782 38.2438 84.6244 37.6768C84.959 37.1097 85.1821 36.5426 85.1821 35.7487V35.0682C83.8436 36.7694 81.055 36.5426 79.4934 34.728C77.8203 32.9133 77.8203 29.8511 79.4934 28.0365C81.1665 26.3353 83.6205 26.1085 85.0705 27.6963V26.9024H86.9667V35.4085C86.9667 37.5633 86.1859 38.8109 85.1821 39.6048C84.5128 40.1719 83.5089 40.3987 82.6166 40.3987C81.6127 40.2853 80.6088 39.945 79.828 39.2646ZM126.567 39.7186L128.463 35.182L125.117 27.3564H127.013L129.355 32.9137L131.698 27.3564H133.594L128.463 39.7186H126.567ZM117.53 35.4086C116.972 34.8415 116.749 34.0476 116.749 33.2537C116.749 32.5732 116.972 31.8927 117.419 31.4391C118.199 30.6452 119.315 30.3049 120.542 30.3049C121.323 30.3049 121.992 30.4184 122.55 30.7586C122.55 29.3976 121.434 28.8306 120.542 28.8306C119.761 28.8306 118.98 29.2842 118.646 30.0781L116.972 29.3976C117.307 28.6037 118.199 27.1293 120.43 27.1293C121.546 27.1293 122.661 27.4696 123.33 28.2635C124 29.0574 124.223 29.9647 124.223 31.2123V35.9757H122.326V35.1818C122.103 35.522 121.657 35.7488 121.323 35.9757C120.876 36.2025 120.319 36.3159 119.761 36.3159C119.092 36.2025 118.088 35.9757 117.53 35.4086ZM58.0794 31.3262C58.0794 29.0579 59.7526 26.5628 62.7642 26.5628C65.6643 26.5628 67.449 29.0579 67.449 31.3262C67.449 33.5945 65.7758 36.0897 62.7642 36.0897C59.7526 36.0897 58.0794 33.5945 58.0794 31.3262ZM68.1172 31.3263C68.1172 29.058 69.7903 26.5629 72.802 26.5629C75.7021 26.5629 77.4867 29.058 77.4867 31.3263C77.4867 33.5946 75.8136 36.0897 72.802 36.0897C69.9019 36.0897 68.1172 33.5946 68.1172 31.3263ZM45.4745 33.821C42.6859 30.9856 42.7975 26.3356 45.586 23.3868C47.0361 21.9124 48.8207 21.2319 50.717 21.2319C52.5016 21.2319 54.2863 21.9124 55.6248 23.2734L54.2863 24.7478C52.2786 22.7063 49.0438 22.8197 47.1476 24.8612C45.1398 27.0161 45.1398 30.3051 47.1476 32.46C49.1554 34.6149 52.5016 34.7283 54.5094 32.5734C55.1787 31.8929 55.4017 30.9856 55.5133 30.0783H50.8285V28.0368H57.4095C57.521 28.4905 57.521 29.0575 57.521 29.6246C57.521 31.3258 56.8518 33.0271 55.7364 34.1612C54.5094 35.4088 52.7247 36.0893 50.94 36.0893C48.9323 35.9758 46.9245 35.2953 45.4745 33.821ZM92.6579 34.6149C90.9847 32.8002 90.9847 29.738 92.6579 27.8099C94.331 25.9953 97.1196 25.9953 98.6812 27.8099C99.2389 28.377 99.5735 29.1709 99.9082 29.9648L93.7733 32.5734C94.1079 33.3673 94.8887 34.0478 96.0042 34.0478C97.008 34.0478 97.6773 33.7075 98.3466 32.6868L100.02 33.8209C99.7966 34.0478 99.5735 34.2746 99.462 34.5014C97.5658 36.4295 94.331 36.4295 92.6579 34.6149ZM104.258 35.9761V23.3871H108.273C110.616 23.3871 112.512 25.0883 112.512 27.1298C112.512 29.1712 110.839 30.8725 108.72 30.8725H106.266V35.8627H104.258V35.9761ZM113.629 35.9761V23.3871H115.525V35.9761H113.629ZM88.4194 35.7487V21.6853H90.4271V35.7487H88.4194ZM122.44 32.2334C121.994 31.8932 121.325 31.7798 120.655 31.7798C119.317 31.7798 118.536 32.4603 118.536 33.2542C118.536 34.0481 119.317 34.5017 120.098 34.5017C121.213 34.5017 122.44 33.5944 122.44 32.2334ZM65.3275 31.3263C65.3275 29.9653 64.4352 28.4909 62.7621 28.4909C61.0889 28.4909 60.1966 29.9653 60.1966 31.3263C60.1966 32.6872 61.0889 34.1616 62.7621 34.1616C64.3236 34.1616 65.3275 32.6872 65.3275 31.3263ZM75.3685 31.3262C75.3685 29.9652 74.4762 28.4908 72.803 28.4908C71.1299 28.4908 70.2375 29.9652 70.2375 31.3262C70.2375 32.6872 71.1299 34.1616 72.803 34.1616C74.4762 34.1616 75.3685 32.6872 75.3685 31.3262ZM85.2949 32.1196C85.2949 32.0062 85.2949 31.8928 85.4064 31.7794C85.4064 31.666 85.4064 31.4391 85.4064 31.3257C85.4064 31.2123 85.4064 30.9855 85.4064 30.8721V30.7587C85.4064 30.6452 85.2949 30.4184 85.2949 30.305C84.9602 29.1709 83.9563 28.377 82.9525 28.377C81.614 28.377 80.4985 29.7379 80.4985 31.2123C80.4985 32.8001 81.614 34.0477 83.064 34.0477C83.9563 34.1611 84.8487 33.3672 85.2949 32.1196ZM93.4379 31.0992L97.565 29.2846C97.1188 28.4907 96.4495 28.2638 95.8918 28.2638C94.2187 28.3773 93.2148 30.1919 93.4379 31.0992ZM110.505 27.2432C110.505 26.1091 109.612 25.3152 108.385 25.3152H106.155V29.2847H108.497C109.612 29.2847 110.505 28.3774 110.505 27.2432Z" fill="white"/>
<path fill-rule="evenodd" clip-rule="evenodd" d="M128.017 37.4507H127.906V37.3373H128.017H127.906V37.4507H128.017Z" fill="white"/>
<path fill-rule="evenodd" clip-rule="evenodd" d="M128.351 37.3373H128.239H128.351V37.4507V37.3373Z" fill="white"/>
<path d="M43.9144 12.2719C43.9144 10.2305 45.3645 8.98291 47.1492 8.98291C48.3761 8.98291 49.1569 9.54998 49.7146 10.3439L48.8223 10.9109C48.4877 10.4573 47.93 10.117 47.1492 10.117C45.9222 10.117 45.0299 11.0243 45.0299 12.3853C45.0299 13.7463 45.9222 14.6536 47.1492 14.6536C47.8184 14.6536 48.3761 14.3133 48.5992 14.0865V13.0658H46.8145V12.0451H49.8262V14.4267C49.2685 15.1072 48.3761 15.5609 47.2607 15.5609C45.3645 15.5609 43.9144 14.1999 43.9144 12.2719Z" fill="white"/>
<path d="M51.1621 15.4481V9.09692H55.4007V10.1177H52.166V11.7055H55.2891V12.7262H52.166V14.5408H55.4007V15.5616L51.1621 15.4481Z" fill="white"/>
<path d="M58.5255 15.4481V10.1177H56.6293V9.09692H61.5371V10.1177H59.6409V15.4481H58.5255Z" fill="white"/>
<path d="M65.33 15.4481V9.09692H66.4455V15.4481H65.33Z" fill="white"/>
<path d="M69.4567 15.4481V10.1177H67.5605V9.09692H72.4683V10.1177H70.5721V15.4481H69.4567Z" fill="white"/>
<path fill-rule="evenodd" clip-rule="evenodd" d="M79.2728 8.98291C77.3765 8.98291 76.038 10.3439 76.038 12.2719C76.038 14.0865 77.3765 15.5609 79.2728 15.5609C81.169 15.5609 82.5075 14.1999 82.5075 12.2719C82.5075 10.3439 81.169 8.98291 79.2728 8.98291ZM79.161 10.0035C80.4995 10.0035 81.2803 10.9109 81.2803 12.2718C81.2803 13.5194 80.4995 14.5401 79.161 14.5401C77.8225 14.5401 77.0417 13.6328 77.0417 12.2718C77.0417 11.0243 77.934 10.0035 79.161 10.0035Z" fill="white"/>
<path d="M88.0826 15.4481L84.8479 10.9116V15.4481H83.7324V9.09692H84.8479L88.0826 13.5201V9.09692H89.198V15.4481H88.0826Z" fill="white"/>
<defs>
<linearGradient id="paint0_linear_1123_55649" x1="6.66788" y1="11.6647" x2="13.955" y2="37.445" gradientUnits="userSpaceOnUse">
<stop stop-color="#006884"/>
<stop offset="1" stop-color="#8AD1D0"/>
</linearGradient>
<linearGradient id="paint1_linear_1123_55649" x1="5.0002" y1="18.5542" x2="18.8673" y2="31.3276" gradientUnits="userSpaceOnUse">
<stop stop-color="#24BBB6"/>
<stop offset="1" stop-color="#DBE692"/>
</linearGradient>
<linearGradient id="paint2_linear_1123_55649" x1="36.3404" y1="27.6062" x2="36.3404" y2="18.5914" gradientUnits="userSpaceOnUse">
<stop stop-color="#FCC072"/>
<stop offset="1" stop-color="#F58A5B"/>
</linearGradient>
<linearGradient id="paint3_linear_1123_55649" x1="23.3115" y1="43.7652" x2="32.7586" y2="27.5297" gradientUnits="userSpaceOnUse">
<stop stop-color="#712B8F"/>
<stop offset="1" stop-color="#EA1D27"/>
</linearGradient>
</defs>
</svg>
