<svg width="26" height="26" viewBox="0 0 26 26" fill="none" xmlns="http://www.w3.org/2000/svg">
<path d="M16.7501 5.5C15.3001 5.5 13.9084 6.175 13.0001 7.24167C12.0917 6.175 10.7001 5.5 9.25008 5.5C6.68341 5.5 4.66675 7.51667 4.66675 10.0833C4.66675 13.2333 7.50008 15.8 11.7917 19.7L13.0001 20.7917L14.2084 19.6917C18.5001 15.8 21.3334 13.2333 21.3334 10.0833C21.3334 7.51667 19.3167 5.5 16.7501 5.5ZM13.0834 18.4583L13.0001 18.5417L12.9167 18.4583C8.95008 14.8667 6.33341 12.4917 6.33341 10.0833C6.33341 8.41667 7.58341 7.16667 9.25008 7.16667C10.5334 7.16667 11.7834 7.99167 12.2251 9.13333H13.7834C14.2167 7.99167 15.4667 7.16667 16.7501 7.16667C18.4167 7.16667 19.6667 8.41667 19.6667 10.0833C19.6667 12.4917 17.0501 14.8667 13.0834 18.4583Z" fill="#3A4B6D"/>
</svg>
