<svg width="15" height="12" viewBox="0 0 15 12" fill="none" xmlns="http://www.w3.org/2000/svg">
<path fill-rule="evenodd" clip-rule="evenodd" d="M1.09375 0.375C0.489689 0.375 0 0.864689 0 1.46875V10.2188C0 10.8228 0.489689 11.3125 1.09375 11.3125H13.9062C14.5103 11.3125 15 10.8228 15 10.2188V1.46875C15 0.864689 14.5103 0.375 13.9062 0.375H1.09375ZM0.9375 1.46875C0.9375 1.38246 1.00746 1.3125 1.09375 1.3125H13.9062C13.9925 1.3125 14.0625 1.38246 14.0625 1.46875V2.00098L7.58746 6.37601C7.53461 6.41172 7.46536 6.41172 7.4125 6.37601L0.9375 2.001V1.46875ZM0.9375 3.13244V10.2188C0.9375 10.305 1.00746 10.375 1.09375 10.375H13.9062C13.9925 10.375 14.0625 10.305 14.0625 10.2188V3.13242L8.11233 7.15281C7.74236 7.40278 7.2576 7.40278 6.88764 7.15281L0.9375 3.13244Z" fill="#AFAFAF"/>
</svg>
