<svg width="13" height="12" viewBox="0 0 13 12" fill="none" xmlns="http://www.w3.org/2000/svg">
<path fill-rule="evenodd" clip-rule="evenodd" d="M6.49969 0.0625C4.60123 0.0625 3.06224 1.60153 3.06224 3.5C3.06224 4.68091 3.65772 5.72275 4.56478 6.3416C2.46193 7.11191 0.947195 9.10183 0.877165 11.4548C0.869463 11.7136 1.07299 11.9296 1.33176 11.9373C1.59053 11.945 1.80655 11.7415 1.81425 11.4827C1.88934 8.95984 3.9584 6.9375 6.49964 6.9375C9.04087 6.9375 11.1099 8.95984 11.185 11.4827C11.1927 11.7415 11.4087 11.945 11.6675 11.9373C11.9263 11.9296 12.1298 11.7136 12.1221 11.4548C12.0521 9.10186 10.5374 7.11195 8.43456 6.34163C9.34165 5.72278 9.93714 4.68093 9.93714 3.5C9.93714 1.60153 8.39815 0.0625 6.49969 0.0625ZM3.99974 3.5C3.99974 2.11928 5.11901 1 6.49969 1C7.88037 1 8.99964 2.11928 8.99964 3.5C8.99964 4.88072 7.88037 6 6.49969 6C5.11901 6 3.99974 4.88072 3.99974 3.5Z" fill="#AFAFAF"/>
</svg>
