<svg width="10" height="16" viewBox="0 0 10 16" fill="none" xmlns="http://www.w3.org/2000/svg">
<path d="M8.01772 0.746875H7.99093L7.9908 0.747073H2.1081C1.47107 0.747073 0.95 1.2681 0.95 1.90517V14.0935C0.95 14.7305 1.47103 15.2516 2.1081 15.2516H8.01759C8.65462 15.2516 9.17569 14.7306 9.17569 14.0935V1.90484C9.17569 1.26781 8.65465 0.746875 8.01772 0.746875ZM8.3369 14.0934C8.3369 14.269 8.19311 14.4127 8.01759 14.4127H2.1081C1.93257 14.4127 1.78879 14.269 1.78879 14.0934V13.4048H8.33696L8.3369 14.0934ZM8.3369 12.566H1.78872V3.43244H8.3369V12.566ZM8.3369 2.59376H1.78872V1.90514C1.78872 1.72961 1.93251 1.58583 2.10803 1.58583H8.01753C8.19306 1.58583 8.33684 1.72961 8.33684 1.90514L8.3369 2.59376Z" fill="#AFAFAF" stroke="#AFAFAF" stroke-width="0.1"/>
</svg>
