<svg width="26" height="26" viewBox="0 0 26 26" fill="none" xmlns="http://www.w3.org/2000/svg">
<path d="M15.9167 14.6667H15.2583L15.025 14.4417C15.8417 13.4917 16.3333 12.2583 16.3333 10.9167C16.3333 7.925 13.9083 5.5 10.9167 5.5C7.925 5.5 5.5 7.925 5.5 10.9167C5.5 13.9083 7.925 16.3333 10.9167 16.3333C12.2583 16.3333 13.4917 15.8417 14.4417 15.025L14.6667 15.2583V15.9167L18.8333 20.075L20.075 18.8333L15.9167 14.6667ZM10.9167 14.6667C8.84167 14.6667 7.16667 12.9917 7.16667 10.9167C7.16667 8.84167 8.84167 7.16667 10.9167 7.16667C12.9917 7.16667 14.6667 8.84167 14.6667 10.9167C14.6667 12.9917 12.9917 14.6667 10.9167 14.6667Z" fill="#3A4B6D"/>
</svg>
