<svg width="25" height="25" viewBox="0 0 25 25" fill="none" xmlns="http://www.w3.org/2000/svg">
<rect width="25" height="25" rx="12.5" fill="#B4B6BC"/>
<path d="M8.9161 18V16.4489L12.5404 13.093C12.8486 12.7947 13.1072 12.5263 13.316 12.2876C13.5281 12.049 13.6888 11.8153 13.7982 11.5866C13.9076 11.3546 13.9623 11.1044 13.9623 10.8359C13.9623 10.5376 13.8943 10.2808 13.7584 10.0653C13.6225 9.84659 13.4369 9.67921 13.2016 9.56321C12.9663 9.44389 12.6995 9.38423 12.4012 9.38423C12.0896 9.38423 11.8179 9.44721 11.5858 9.57315C11.3538 9.6991 11.1749 9.87973 11.0489 10.1151C10.923 10.3504 10.86 10.6304 10.86 10.9553H8.81667C8.81667 10.2891 8.96748 9.7107 9.26909 9.22017C9.5707 8.72964 9.99328 8.35014 10.5368 8.08168C11.0804 7.81321 11.7068 7.67898 12.4161 7.67898C13.1453 7.67898 13.78 7.80824 14.3202 8.06676C14.8638 8.32197 15.2864 8.67661 15.588 9.13068C15.8896 9.58475 16.0404 10.1051 16.0404 10.6918C16.0404 11.0762 15.9642 11.4557 15.8117 11.8303C15.6626 12.2048 15.3957 12.6207 15.0113 13.0781C14.6268 13.5322 14.0849 14.0774 13.3856 14.7138L11.8991 16.1705V16.2401H16.1746V18H8.9161Z" fill="white"/>
</svg>
