<svg width="25" height="25" viewBox="0 0 25 25" fill="none" xmlns="http://www.w3.org/2000/svg">
<rect width="25" height="25" rx="12.5" fill="#B4B6BC"/>
<path d="M12.4745 18.1392C11.7321 18.1392 11.0709 18.0116 10.4909 17.7564C9.91415 17.4979 9.45842 17.1432 9.12367 16.6925C8.79223 16.2384 8.62154 15.7147 8.61159 15.1214H10.7792C10.7925 15.37 10.8737 15.5888 11.0228 15.7777C11.1753 15.9633 11.3775 16.1075 11.6294 16.2102C11.8812 16.313 12.1646 16.3643 12.4795 16.3643C12.8076 16.3643 13.0976 16.3063 13.3495 16.1903C13.6014 16.0743 13.7986 15.9136 13.9411 15.7081C14.0837 15.5026 14.1549 15.2656 14.1549 14.9972C14.1549 14.7254 14.0787 14.4851 13.9262 14.2763C13.7771 14.0642 13.5616 13.8984 13.2799 13.7791C13.0015 13.6598 12.6701 13.6001 12.2856 13.6001H11.336V12.0192H12.2856C12.6104 12.0192 12.8971 11.9628 13.1457 11.8501C13.3976 11.7375 13.5931 11.5817 13.7323 11.3828C13.8715 11.1806 13.9411 10.9453 13.9411 10.6768C13.9411 10.4216 13.8798 10.1979 13.7572 10.0057C13.6379 9.81013 13.4688 9.65767 13.2501 9.5483C13.0347 9.43892 12.7828 9.38423 12.4944 9.38423C12.2027 9.38423 11.9359 9.43726 11.694 9.54332C11.452 9.64607 11.2581 9.79356 11.1123 9.9858C10.9665 10.178 10.8886 10.4034 10.8786 10.6619H8.81543C8.82537 10.0753 8.99275 9.55824 9.31756 9.1108C9.64237 8.66335 10.0799 8.31368 10.6301 8.06179C11.1836 7.80658 11.8083 7.67898 12.5044 7.67898C13.207 7.67898 13.8218 7.80658 14.3488 8.06179C14.8758 8.317 15.2851 8.66169 15.5768 9.09588C15.8718 9.52675 16.0176 10.0107 16.0143 10.5476C16.0176 11.1177 15.8403 11.5933 15.4823 11.9744C15.1277 12.3556 14.6653 12.5975 14.0953 12.7003V12.7798C14.8443 12.8759 15.4144 13.1361 15.8055 13.5604C16.1999 13.9813 16.3954 14.5083 16.3921 15.1413C16.3954 15.7214 16.2281 16.2367 15.89 16.6875C15.5553 17.1383 15.0929 17.4929 14.5029 17.7514C13.913 18.0099 13.2368 18.1392 12.4745 18.1392Z" fill="white"/>
</svg>
