<svg width="14" height="11" viewBox="0 0 14 11" fill="none" xmlns="http://www.w3.org/2000/svg">
<path d="M11.9091 3.20455H10.0682V0.75H1.47727C0.802273 0.75 0.25 1.30227 0.25 1.97727V8.72727H1.47727C1.47727 9.74591 2.29955 10.5682 3.31818 10.5682C4.33682 10.5682 5.15909 9.74591 5.15909 8.72727H8.84091C8.84091 9.74591 9.66318 10.5682 10.6818 10.5682C11.7005 10.5682 12.5227 9.74591 12.5227 8.72727H13.75V5.65909L11.9091 3.20455ZM3.31818 9.64773C2.80886 9.64773 2.39773 9.23659 2.39773 8.72727C2.39773 8.21795 2.80886 7.80682 3.31818 7.80682C3.8275 7.80682 4.23864 8.21795 4.23864 8.72727C4.23864 9.23659 3.8275 9.64773 3.31818 9.64773ZM11.6023 4.125L12.805 5.65909H10.0682V4.125H11.6023ZM10.6818 9.64773C10.1725 9.64773 9.76136 9.23659 9.76136 8.72727C9.76136 8.21795 10.1725 7.80682 10.6818 7.80682C11.1911 7.80682 11.6023 8.21795 11.6023 8.72727C11.6023 9.23659 11.1911 9.64773 10.6818 9.64773Z" fill="#3A4B6D"/>
</svg>
